<mxfile host="app.diagrams.net" modified="2021-03-24T15:30:31.746Z" agent="5.0 (Windows NT 10.0; Win64; x64) AppleWebKit/537.36 (KHTML, like Gecko) Chrome/89.0.4389.90 Safari/537.36" etag="ZGsEJxIe5SjRaM_6FRb2" version="14.5.1" type="github">
  <diagram id="C5RBs43oDa-KdzZeNtuy" name="Page-1">
    <mxGraphModel dx="1422" dy="762" grid="1" gridSize="10" guides="1" tooltips="1" connect="1" arrows="1" fold="1" page="1" pageScale="1" pageWidth="827" pageHeight="1169" math="0" shadow="0">
      <root>
        <mxCell id="WIyWlLk6GJQsqaUBKTNV-0" />
        <mxCell id="WIyWlLk6GJQsqaUBKTNV-1" parent="WIyWlLk6GJQsqaUBKTNV-0" />
        <mxCell id="XA0yocHklrnYQz-wXdVa-0" value="&lt;b style=&quot;line-height: 310%&quot;&gt;&lt;font style=&quot;font-size: 18px&quot;&gt;Start&lt;/font&gt;&lt;/b&gt;" style="ellipse;whiteSpace=wrap;html=1;" vertex="1" parent="WIyWlLk6GJQsqaUBKTNV-1">
          <mxGeometry x="210" y="10" width="120" height="80" as="geometry" />
        </mxCell>
        <mxCell id="XA0yocHklrnYQz-wXdVa-1" value="&lt;font style=&quot;font-size: 14px&quot;&gt;Input number 1,&lt;br&gt;number 2&lt;/font&gt;" style="shape=parallelogram;perimeter=parallelogramPerimeter;whiteSpace=wrap;html=1;fixedSize=1;" vertex="1" parent="WIyWlLk6GJQsqaUBKTNV-1">
          <mxGeometry x="165" y="140" width="210" height="70" as="geometry" />
        </mxCell>
        <mxCell id="XA0yocHklrnYQz-wXdVa-3" value="" style="endArrow=classic;html=1;exitX=0.5;exitY=1;exitDx=0;exitDy=0;entryX=0.5;entryY=0;entryDx=0;entryDy=0;" edge="1" parent="WIyWlLk6GJQsqaUBKTNV-1" source="XA0yocHklrnYQz-wXdVa-0" target="XA0yocHklrnYQz-wXdVa-1">
          <mxGeometry width="50" height="50" relative="1" as="geometry">
            <mxPoint x="390" y="400" as="sourcePoint" />
            <mxPoint x="440" y="350" as="targetPoint" />
          </mxGeometry>
        </mxCell>
        <mxCell id="XA0yocHklrnYQz-wXdVa-4" value="" style="endArrow=classic;html=1;exitX=0.452;exitY=1;exitDx=0;exitDy=0;exitPerimeter=0;" edge="1" parent="WIyWlLk6GJQsqaUBKTNV-1" source="XA0yocHklrnYQz-wXdVa-1">
          <mxGeometry width="50" height="50" relative="1" as="geometry">
            <mxPoint x="390" y="400" as="sourcePoint" />
            <mxPoint x="260" y="270" as="targetPoint" />
          </mxGeometry>
        </mxCell>
        <mxCell id="XA0yocHklrnYQz-wXdVa-5" value="&lt;font style=&quot;font-size: 14px&quot;&gt;Sum =Number 1 + Number 2&lt;/font&gt;" style="rounded=0;whiteSpace=wrap;html=1;" vertex="1" parent="WIyWlLk6GJQsqaUBKTNV-1">
          <mxGeometry x="160" y="270" width="200" height="60" as="geometry" />
        </mxCell>
        <mxCell id="XA0yocHklrnYQz-wXdVa-6" value="" style="endArrow=classic;html=1;exitX=0.5;exitY=1;exitDx=0;exitDy=0;" edge="1" parent="WIyWlLk6GJQsqaUBKTNV-1" source="XA0yocHklrnYQz-wXdVa-5">
          <mxGeometry width="50" height="50" relative="1" as="geometry">
            <mxPoint x="390" y="400" as="sourcePoint" />
            <mxPoint x="260" y="390" as="targetPoint" />
          </mxGeometry>
        </mxCell>
        <mxCell id="XA0yocHklrnYQz-wXdVa-7" value="Print sum" style="shape=parallelogram;perimeter=parallelogramPerimeter;whiteSpace=wrap;html=1;fixedSize=1;" vertex="1" parent="WIyWlLk6GJQsqaUBKTNV-1">
          <mxGeometry x="180" y="390" width="150" height="50" as="geometry" />
        </mxCell>
        <mxCell id="XA0yocHklrnYQz-wXdVa-8" value="" style="endArrow=classic;html=1;exitX=0.5;exitY=1;exitDx=0;exitDy=0;" edge="1" parent="WIyWlLk6GJQsqaUBKTNV-1" source="XA0yocHklrnYQz-wXdVa-7">
          <mxGeometry width="50" height="50" relative="1" as="geometry">
            <mxPoint x="390" y="390" as="sourcePoint" />
            <mxPoint x="255" y="510" as="targetPoint" />
          </mxGeometry>
        </mxCell>
        <mxCell id="XA0yocHklrnYQz-wXdVa-9" value="&lt;font style=&quot;font-size: 18px&quot;&gt;&lt;b&gt;End&lt;/b&gt;&lt;/font&gt;" style="ellipse;whiteSpace=wrap;html=1;" vertex="1" parent="WIyWlLk6GJQsqaUBKTNV-1">
          <mxGeometry x="195" y="510" width="120" height="80" as="geometry" />
        </mxCell>
        <mxCell id="XA0yocHklrnYQz-wXdVa-10" value="&lt;div style=&quot;padding: 0px ; margin: 0px ; color: transparent ; position: absolute ; cursor: text ; font-family: sans-serif ; background-color: rgb(255 , 255 , 255) ; left: 120.042px ; top: 925.029px ; font-size: 20px ; transform: scalex(1.05468)&quot;&gt;le &lt;/div&gt;&lt;div style=&quot;padding: 0px ; margin: 0px ; color: transparent ; position: absolute ; cursor: text ; font-family: sans-serif ; background-color: rgb(255 , 255 , 255) ; left: 231.75px ; top: 926.213px ; font-size: 20px ; transform: scalex(0.953577)&quot;&gt;Assignment &lt;/div&gt;&lt;div style=&quot;padding: 0px ; margin: 0px ; color: transparent ; position: absolute ; cursor: text ; font-family: sans-serif ; background-color: rgb(255 , 255 , 255) ; left: 336.8px ; top: 926.213px ; font-size: 20px&quot;&gt;3&lt;/div&gt;" style="text;html=1;strokeColor=none;fillColor=none;align=center;verticalAlign=middle;whiteSpace=wrap;rounded=0;" vertex="1" parent="WIyWlLk6GJQsqaUBKTNV-1">
          <mxGeometry x="640" y="30" width="110" height="40" as="geometry" />
        </mxCell>
        <mxCell id="XA0yocHklrnYQz-wXdVa-11" value="&lt;b&gt;&lt;font color=&quot;#ff3333&quot; style=&quot;font-size: 24px&quot;&gt;Assignmnet 2&lt;/font&gt;&lt;/b&gt;" style="text;html=1;strokeColor=none;fillColor=none;align=center;verticalAlign=middle;whiteSpace=wrap;rounded=0;" vertex="1" parent="WIyWlLk6GJQsqaUBKTNV-1">
          <mxGeometry x="675" y="30" width="135" height="50" as="geometry" />
        </mxCell>
      </root>
    </mxGraphModel>
  </diagram>
</mxfile>
